<svg xmlns="http://www.w3.org/2000/svg" xml:space="preserve" width="133" height="26" fill="none" viewBox="0 0 133 26"><g fill="#fff" clip-path="url(#a)" style="fill:#000;fill-opacity:1"><path d="M115.966 0H99.901l-2.04 2.399h6.752l-3.91 10.8h5.461l3.458-9.551-2.279-1.25h6.514z" style="fill:#000;fill-opacity:1"/><path d="M98.732 0H82.666l-2.11 2.399h1.242l-3.905 10.8h5.46l2.176-6.011h2.407l1.269 6h5.46l-1.273-6h2.732zm-12.34 4.79.415-1.142-2.279-1.25h7.865L91.53 4.79zM64.358 0l-2.11 2.399h1.243l-3.913 10.8h16.069L80.425 0zm7.148 9.552 2.278 1.249H65.91l2.585-7.15-2.274-1.252h7.874zM25.5 0H9.434l-2.11 2.399h1.242l-3.91 10.8h16.066l1.72-4.751h-5.46l-.853 2.353h-5.143l.85-2.353L9.559 7.2h6.59l.867-2.399h-3.859l.418-1.153-2.278-1.25h7.874l-.452 1.25h5.46zM62.115 0H46.05l-2.111 2.399h1.242l-3.91 10.8h5.462l2.178-6.011h10.598zM49.773 4.79l.413-1.142-2.274-1.25h7.865l-.862 2.391zM42.487 3.648 43.807 0H27.74l-2.11 2.399h1.242l-.453 1.249 8.868 4.8-.409 1.128 2.237 1.225h-7.824l.851-2.353h-5.46l-1.72 4.751h16.065l1.72-4.751-11.145-6.05h7.874l-.451 1.25zM132.031 0h-16.065l-1.32 3.648 8.866 4.8-.407 1.128 2.237 1.225h-7.825l.852-2.353h-5.461l-1.72 4.751h16.066l1.719-4.751-11.145-6.05h7.875l-.453 1.25h5.461zM22.466 15.454l-1.674 1.91h.989l-2.427 6.686-.692 1.91h12.796l3.804-10.508zm5.69 7.606 1.815.99h-6.27l2.06-5.696-1.813-.995h6.27zM126.447 15.454h-12.792l-1.68 1.91h.989l-3.112 8.6h4.348l1.732-4.787h8.439zm-9.824 3.813.329-.909-1.814-.994h6.264l-.689 1.903zM65.304 15.454l-1.68 1.91h.988l-3.112 8.6h9.657l3.654-1.434 3.284-9.076zm7.757 1.91-2.426 6.686H66.54l2.06-5.696-1.813-.995zM96.242 18.358l1.052-2.904H84.5l-1.68 1.91h.99l-3.114 8.6H93.49l1.369-3.783h-4.348l-.679 1.873h-4.095l2.062-5.696-1.814-.994h6.269l-.36.994zM111.87 15.454h-4.348l-2.753 7.606 1.813.994h-6.269l3.113-8.6h-4.348l-1.68 1.91h.989l-3.114 8.6h12.793zM57.63 22.18l-.679 1.874h-4.095l3.113-8.6H51.62l-1.68 1.91h.99l-3.114 8.6H60.61l1.368-3.784zM37.044 15.454l-1.68 1.91h.99l-3.114 8.6h4.348l1.736-4.787h1.917l1.013 4.778h4.349l-1.014-4.778h2.17l2.077-5.723zm7.06 3.813h-4.095l.329-.909-1.813-.994h6.263zM16.354 15.454l-2.765 7.64 1.809.992h-4.074l3.125-8.632h-4.363L7.303 23.09l1.815.995H5.044l3.136-8.632H3.817L2.131 17.37h.992L0 26h4.87l4.273-1.916L12.537 26h4.235l3.817-10.546z" style="fill:#000;fill-opacity:1"/></g><defs><clipPath id="a"><path fill="#fff" d="M0 0h132.031v26H0z"/></clipPath></defs></svg>