<svg xmlns="http://www.w3.org/2000/svg" xml:space="preserve" width="1000" height="766" viewBox="0 0 264.58333 202.67083"><path d="m198.747 150.829-2.476-3.586c2.686-3.398 3.888-6.017 6.09-9.781l4.394.06c-3.047 6.42-5.025 9.234-8.008 13.307zM209.883 166.586l-7.862-11.177c-22.66 27.843-48.383 33.272-69.415 34.146-7.025-.083-23.89-1.983-35.343-7.558-17.817-8.672-33.577-20.214-45.243-44.91l-14.016.02c9.958 26.388 27.849 42.443 44.803 52.403 17.065 10.025 35.786 13.044 49.7 13.147 24.32.18 55.916-10.122 77.376-36.07z" style="display:inline;fill:#000;fill-opacity:1;stroke-width:.888389"/><path d="m209.884 166.587-7.862-11.177c5.25-7.001 6.739-9.472 10.884-18.358l14.127.046c-2.403 6.412-6.129 15.753-17.15 29.49z" style="display:inline;fill:#2568fc;fill-opacity:1;stroke-width:.888389"/><path d="m198.747 150.828-2.476-3.584c-9.09 12.594-19.106 19.302-26.755 23.652-6.5 3.76-19.67 8.07-29.76 8.975-15.416.887-24.594-1.745-27.812-2.41-3.296-1.118-12.604-2.954-26.592-12.935-13.99-9.98-22.99-26.973-22.774-26.973 0 0-3.339.02-4.535.004 7.75 15.895 18.644 26.034 28.738 32.774 11.39 7.605 22.837 10.582 23.791 10.887 4.853 1.552 16.474 3.546 28.803 2.656 7.6-.549 22.086-3.96 31.437-9.23 5.282-2.705 17.821-10.165 27.935-23.816z" style="display:inline;fill:#2568fc;fill-opacity:1;stroke-width:.673802"/><path d="m108.832 21.622 2.403 3.581c-12.59 3.442-22.165 9.015-30.045 15.65-7.608 6.406-13.704 13.857-19.344 24.373H57.31c3.986-8.724 11.81-19.499 21.002-27.238 9.5-7.996 19.749-13.072 30.521-16.366zM97.834 6.002l7.844 11.211c27.474-8.111 51.18-2.452 67.952 6.492 18.647 9.943 32.017 25.968 38.736 41.823l14.071.002c-8.846-23.666-26-42.95-49.13-54.653C154.2-.813 125.931-4.065 97.833 6.002Z" style="display:inline;fill:#2568fc;fill-opacity:1;stroke-width:.88389"/><path d="m97.834 6.002 7.844 11.212c-27.643 8.66-46.561 29.691-54.11 48.327l-14.125-.045c3.95-10.07 17.895-43.535 60.391-59.494Z" style="display:inline;fill:#000;fill-opacity:1;stroke-width:.88389"/><path d="m108.833 21.622 2.373 3.59c27.822-7.947 52.768 3.462 56.821 6.008 2.369 1.488 21.64 10.55 33.677 33.975l4.502.093c-7.888-17.384-21.449-30.172-37.486-38.236-17.427-8.763-38.779-11.523-59.887-5.43Z" style="display:inline;fill:#000;fill-opacity:1;stroke-width:.670389"/><path d="m.05 76.756 85.31-.026L97.098 95.04l-20.3 30.87-71.28-.094 8.656-12.11 5.784.054L32.592 95.12l15.61-.059-11.097 18.437 30.868-.199 13.036-18.725-4.291-5.904-68.6.12Z" style="display:inline;fill:#000;fill-opacity:1;stroke-width:.962001"/><path d="m91.281 76.73 8.919 12.054 6.505-.047-23.502 37.182 16.7-.024 11.774-18.652 40.645.194 8.545-12.32-40.372-.038 3.812-6.334 40.248.025 8.482-11.909z" style="display:inline;fill:#000;fill-opacity:1;stroke-width:.962001"/><path d="m167.288 95.539-7.744 11.882 19.711-.132 12.047 18.512 15.803.016-20.41-30.262z" style="display:inline;fill:#2568fc;fill-opacity:1;stroke-width:.962001"/><path d="m179.586 76.861-7.706 11.642 18.137.032 24.116 37.306 16.093-.038-24.388-37.12 7.152-.054 24.483 37.22 21.819-.304-8.81-11.563-5.45.047-16.91-25.218 29.084-.16 7.245-11.657z" style="display:inline;fill:#2568fc;fill-opacity:1;stroke-width:.962001"/></svg>