<svg xmlns="http://www.w3.org/2000/svg" width="706" height="599" viewBox="0 0 706 599"><image width="706" height="599" preserveAspectRatio="none"/><path d="M244.436 518.754c-85.367-85.57-85.413-85.62-95.212-105.254-19.95-39.972-19.222-88.013 1.933-127.5 9.125-17.032 12.571-20.762 104.403-113 54.723-54.964 90.098-91.241 91.676-94.013 1.414-2.482 3.332-7.132 4.263-10.334 1.603-5.515 1.832-5.79 4.347-5.206 1.46.338 5.982 2.233 10.049 4.21 13.004 6.323 22.901 18.381 26.652 32.474 2.133 8.012 1.86 20.446-.616 28.03-3.62 11.088-3.846 12.73-2.48 17.998 2.233 8.606 9.06 13.841 18.049 13.841 6.23 0 10.473-1.982 14.621-6.829l3.5-4.089 58.06 58.21c61.511 61.67 63.399 63.813 72.869 82.7 10.69 21.32 15.061 42.055 14.129 67.008-1.215 32.499-11.501 59.297-32.241 84-3.464 4.125-40.199 41.362-81.633 82.75-80.55 80.458-77.824 78.052-82.63 72.936-2.168-2.307-2.175-2.464-2.175-48.23v-45.915l54.851-55.02c58.697-58.879 59.58-59.901 64.713-75.03 5.678-16.733 4.237-34.378-4.204-51.491-4.621-9.368-5.095-9.911-33.987-39l-29.3-29.5-71.53 71.491-71.53 71.491-12.439-12.408c-15.033-14.998-17.76-19.46-18.35-30.036-.337-6.046.02-8.725 1.799-13.538 2.108-5.701 4.677-8.465 51.598-55.523L353 234.455v-25.728c0-14.15-.349-25.727-.775-25.727s-29.383 28.688-64.348 63.75c-47.491 47.625-64.467 65.268-67.113 69.75-6.216 10.53-8.963 19.662-9.519 31.644-.62 13.385 1.338 22.887 7.049 34.204 3.824 7.578 6.193 10.25 33.633 37.927l29.519 29.774 71.03-71.024C391.541 339.96 424.002 308 424.61 308c2.076 0 24.953 24.468 27.182 29.072 4.77 9.852 4.66 20.649-.299 29.761-1.781 3.273-21.962 24.139-63.996 66.169l-61.394 61.388 3.977 4.314 3.977 4.314-.279 46.08-.279 46.08-2.36 1.911c-1.3 1.051-3.324 1.913-4.5 1.914-1.506.002-25.877-23.79-82.204-80.25M105.846 399.25c-28.945-29.012-53.731-54.55-55.08-56.75-5.311-8.66-6.81-15.204-11.885-51.864-2.731-19.734-4.828-36.296-4.659-36.803.17-.508 7.847 6.344 17.061 15.226 14.375 13.856 17.093 16.064 19.144 15.549 5.398-1.355 8.473-14.94 4.96-21.908-.888-1.76-11.839-13.55-24.336-26.2l-22.721-23-5.184-39.5C12.156 90.256 4.832 34.832 2.594 18.5 1.314 9.15.445 1.298.664 1.05c.22-.246 28.399 27.488 62.618 61.632 57.358 57.231 62.726 62.315 68.718 65.082 9.943 4.591 15.8 5.61 28.175 4.902 6.538-.374 11.908-.214 13.572.405 1.514.563 13.44 11.687 26.503 24.719 20.38 20.332 23.754 24.121 23.776 26.702.023 2.632-3.827 6.82-30.815 33.508-31.74 31.39-38.492 38.767-45.81 50.058-10.648 16.43-19.69 39.431-22.974 58.442-2.286 13.233-2.353 37.64-.137 50.512 4.349 25.267 14.912 49.579 29.866 68.738 2.683 3.438 4.752 6.25 4.598 6.25s-23.962-23.737-52.907-52.75M550.195 448c10.874-13.882 20.238-31.398 25.662-48 4.273-13.082 6.1-22.46 7.076-36.323 2.054-29.17-3.728-57.279-16.985-82.567-9.613-18.339-16.208-26.21-50.282-60.021-17.51-17.374-32.483-32.826-33.276-34.339-1.255-2.396-1.254-3.104.01-5.5 2.456-4.656 44.721-45.986 48.745-47.666 2.877-1.202 6.037-1.394 15.012-.913 9.148.49 12.527.273 17.304-1.116 14.765-4.293 13.369-3.079 79.551-69.149C676.841 28.633 704.774 1 705.082 1c.633 0-7.91 77.105-14.113 127.372-4.17 33.801-7.734 59.047-10.604 75.128l-1.607 9-23.81 24c-13.096 13.2-24.327 25.35-24.957 27-3.121 8.173 1.07 21.5 6.762 21.5.885 0 8.943-7.285 17.907-16.189 8.963-8.903 16.547-15.937 16.854-15.63.693.693-8.113 64.96-10.1 73.716-3.167 13.945-3.36 14.173-61.267 72.103-29.413 29.425-51.892 51.475-49.953 49" style="fill:#fd4000"/></svg>