<svg xmlns="http://www.w3.org/2000/svg" width="728.000000pt" height="599.000000pt" version="1.0" viewBox="0 0 728.000000 599.000000"><path d="M1.3 2.4c.9 1.3 9.2 14.9 18.5 30.2S46.3 76.2 58 95.5c11.7 19.2 36.4 60 55 90.5 55.3 91.1 100.4 165.4 133.3 219.5 41.2 67.9 86.4 142.2 107.6 177.2 5.1 8.4 9.6 15.3 9.9 15.3.4 0 9.8-15 20.8-33.3 62.4-103 84.1-138.9 93.2-153.9 5.6-9.1 10.2-17.1 10.2-17.8 0-.6-16-27.5-35.7-59.8-19.6-32.3-43.1-71.1-52.3-86.2-20.8-34.2-41.1-67.6-70.5-116-12.6-20.6-24.8-41.6-27.1-46.5-11-23.2-13.8-52.3-7.4-76.3 1.1-4 2-7.4 2-7.7S230.1 0 148.4 0H-.2zM507 .6c0 .5 12.7 21.4 49.7 81.9 12.2 19.8 30.6 49.9 41 66.9 10.4 16.9 19.3 30.8 19.9 30.8.5.1 2.9-3.3 5.3-7.3 2.5-4.1 26.7-44.1 53.9-88.9s49.7-82.1 49.9-82.8C727.1.3 704.8 0 617.1 0 556.5 0 507 .2 507 .6"/></svg>